<svg xmlns="http://www.w3.org/2000/svg" viewBox="0 0 512 512" width="512" height="512">
    <defs>
        <linearGradient id="piggyGradient" x1="0%" y1="0%" x2="100%" y2="100%">
            <stop offset="0%" style="stop-color:#E3F2FD;stop-opacity:1"/>
            <stop offset="100%" style="stop-color:#FCE4EC;stop-opacity:1"/>
        </linearGradient>
    </defs>
    <!-- Background with app gradient -->
    <rect width="512" height="512" rx="110" fill="url(#piggyGradient)"/>

    <!-- Piggy Icon centered -->
    <g transform="translate(106, 106) scale(12.5)" fill="none" stroke="#7DB9E8" stroke-width="1.5"
       stroke-linecap="round" stroke-linejoin="round">
        <path d="M11 17h3v2a1 1 0 0 0 1 1h2a1 1 0 0 0 1-1v-3a3.16 3.16 0 0 0 2-2h1a1 1 0 0 0 1-1v-2a1 1 0 0 0-1-1h-1a5 5 0 0 0-2-4V3a4 4 0 0 0-3.2 1.6l-.3.4H11a6 6 0 0 0-6 6v1a5 5 0 0 0 2 4v3a1 1 0 0 0 1 1h2a1 1 0 0 0 1-1z"/>
        <path d="M16 10h.01"/>
        <path d="M2 8v1a2 2 0 0 0 2 2h1"/>
    </g>
</svg>